HIERARCHY
ROOT Hips
{
	OFFSET -240.519104 89.812180 402.348785
	CHANNELS 6 Xposition Yposition Zposition Zrotation Yrotation Xrotation 
	JOINT LeftUpLeg
	{
		OFFSET 0.103456 1.857834 10.548498
		CHANNELS 3 Zrotation Yrotation Xrotation
		JOINT LeftLeg
		{
			OFFSET 43.499992 -0.000040 -0.000011
			CHANNELS 3 Zrotation Yrotation Xrotation
			JOINT LeftFoot
			{
				OFFSET 42.372192 0.000015 -0.000003
				CHANNELS 3 Zrotation Yrotation Xrotation
				JOINT LeftToe
				{
					OFFSET 17.300003 0.000002 0.000015
					CHANNELS 3 Zrotation Yrotation Xrotation
					End Site
					{
						OFFSET 0.000000 0.000000 0.000000
					}
				}
			}
		}
	}
	JOINT RightUpLeg
	{
		OFFSET 0.103455 1.857831 -10.548502
		CHANNELS 3 Zrotation Yrotation Xrotation
		JOINT RightLeg
		{
			OFFSET 43.500038 -0.000019 0.000008
			CHANNELS 3 Zrotation Yrotation Xrotation
			JOINT RightFoot
			{
				OFFSET 42.372265 -0.000019 0.000008
				CHANNELS 3 Zrotation Yrotation Xrotation
				JOINT RightToe
				{
					OFFSET 17.299984 -0.000007 0.000027
					CHANNELS 3 Zrotation Yrotation Xrotation
					End Site
					{
						OFFSET 0.000000 0.000000 0.000000
					}
				}
			}
		}
	}
	JOINT Spine
	{
		OFFSET 6.901969 -2.603726 -0.000003
		CHANNELS 3 Zrotation Yrotation Xrotation
		JOINT Spine1
		{
			OFFSET 12.588097 -0.000010 0.000004
			CHANNELS 3 Zrotation Yrotation Xrotation
			JOINT Spine2
			{
				OFFSET 12.343201 0.000004 0.000005
				CHANNELS 3 Zrotation Yrotation Xrotation
				JOINT Neck
				{
					OFFSET 25.832905 0.000013 -0.000010
					CHANNELS 3 Zrotation Yrotation Xrotation
					JOINT Head
					{
						OFFSET 11.766600 -0.000021 0.000000
						CHANNELS 3 Zrotation Yrotation Xrotation
						End Site
						{
							OFFSET 0.000000 0.000000 0.000000
						}
					}
				}
				JOINT LeftShoulder
				{
					OFFSET 19.745911 -1.480368 6.000092
					CHANNELS 3 Zrotation Yrotation Xrotation
					JOINT LeftArm
					{
						OFFSET 11.284128 -0.000006 -0.000023
						CHANNELS 3 Zrotation Yrotation Xrotation
						JOINT LeftForeArm
						{
							OFFSET 33.000057 -0.000001 0.000025
							CHANNELS 3 Zrotation Yrotation Xrotation
							JOINT LeftHand
							{
								OFFSET 25.200012 0.000014 0.000015
								CHANNELS 3 Zrotation Yrotation Xrotation
								End Site
								{
									OFFSET 0.000000 0.000000 0.000000
								}
							}
						}
					}
				}
				JOINT RightShoulder
				{
					OFFSET 19.746101 -1.480364 -6.000078
					CHANNELS 3 Zrotation Yrotation Xrotation
					JOINT RightArm
					{
						OFFSET 11.284142 -0.000002 -0.000011
						CHANNELS 3 Zrotation Yrotation Xrotation
						JOINT RightForeArm
						{
							OFFSET 33.000099 0.000007 0.000015
							CHANNELS 3 Zrotation Yrotation Xrotation
							JOINT RightHand
							{
								OFFSET 25.199781 0.000143 0.000408
								CHANNELS 3 Zrotation Yrotation Xrotation
								End Site
								{
									OFFSET 0.000000 0.000000 0.000000
								}
							}
						}
					}
				}
			}
		}
	}
}
MOTION
Frames: 7
Frame Time: 0.033333
227.257401 86.51635 -757.141403 92.5268587254924 7.687414338272775 3.186023067066847 171.778711 5.323305000000002 167.898672 -41.457875 3.845088000000007 -3.9583819999999985 94.02263600000002 1.5756950000000038 -8.553538000000001 21.45456 0.003110000000007287 1.699999999999997e-05 142.847683 2.781204999999999 -176.293944 -75.78011600000002 -2.1784929999999996 7.375477999999998 80.177917 -4.600684999999992 2.1609799999999995 21.454558 -0.0030890000000005865 0.0 6.887434999999999 -0.8572219999999925 -1.8137159999999997 3.788881 -1.655293999999991 -3.654558 3.471324 -1.6774560000000016 -3.6445149999999993 -3.2938359999999998 -1.1776519999999935 -2.5607890000000006 -21.388025 8.659279000000007 -6.468038000000001 165.484473 -77.93425499999996 13.33313500000001 -5.884661 47.88028500000001 19.937445 -104.820687 -1.5692509999999942 3.1185579999999997 -14.729641000000004 -6.309608999999996 14.843094000000004 -139.19086800000008 82.31157299999995 42.86059499999993 28.955334000000015 -53.506715 -48.715078 -113.216403 -3.0905579999999913 -3.1126100000000005 -5.186565999999999 3.94651 -10.277212 
221.66690099999997 89.011688 -756.930801 93.04269598971634 7.336856595660616 1.403429664016014 175.51421 4.691102000000007 167.755347 -37.586504 3.2993100000000055 -3.414764000000001 82.65093800000001 0.23410000000000172 -9.335860000000002 21.454562 0.003107999999999379 1.7999999999999963e-05 143.825862 0.7859960000000091 -176.02295 -61.46078800000001 -1.112843000000002 6.213110000000001 78.497151 -4.11582799999999 1.004539 21.454553 -0.003092999999990958 9.99999999999932e-07 6.438905 -0.5785729999999957 -2.3897460000000006 2.888169 -1.0984250000000015 -4.793136000000001 2.571191 -1.1274549999999937 -4.7864390000000006 -2.6581240000000004 0.5473889999999978 -1.1251360000000004 -20.101920000000003 6.472825000000005 -3.5829239999999993 161.478103 -79.16386000000001 17.349954000000004 -4.965840000000003 48.912989000000024 23.49756299999999 -107.63859700000002 -1.3405849999999906 3.2266709999999996 -14.708312000000003 -5.878015999999995 15.520686000000001 -135.37146699999997 81.71555700000002 46.75113200000001 28.417856 -50.092757999999996 -47.62208 -115.71879999999999 -3.41102599999999 -3.196291 -5.077701999999999 4.037751000000004 -10.564392999999997 
216.11079399999997 91.10852100000001 -756.8544919999999 93.68859215375292 7.168654835504993 0.022386163178783947 177.082981 3.608199999999999 165.553417 -36.479173 3.9645690000000084 -1.532405 69.594225 -2.5845070000000017 -10.398681 21.454557 0.003109000000003333 1.700000000000027e-05 146.019896 -0.656997999999997 -173.994875 -46.108070000000005 -0.8703629999999944 2.4909170000000005 76.52045299999999 -1.3376719999999989 1.6329990000000003 21.454557000000005 -0.003092999999990958 -1.000000000000126e-06 6.011279999999999 -0.38276799999999267 -2.853958 2.027711 -0.7170019999999964 -5.714089000000002 1.7113180000000001 -0.7515760000000019 -5.709681999999999 -2.0889370000000005 2.510706000000002 -0.107656 -19.316205 4.211371000000007 -1.14221 156.30566900000005 -79.93227 22.556871999999963 -3.6940260000000014 49.05912500000003 27.568866999999997 -109.44960099999999 -1.2830249999999987 3.301726 -13.840752000000002 -4.509946999999993 15.887232999999998 -132.881754 81.06105400000011 49.30396600000002 28.909919999999993 -48.30706999999999 -46.73897099999999 -116.913017 -3.479879999999996 -3.2414460000000003 -4.329495999999998 3.606567000000005 -12.400431999999999 
210.70539899999997 92.321388 -756.680801 94.47453460997401 7.911714998512446 -1.0818626111126406 176.637913 3.1904010000000005 162.992301 -39.197937 5.8577540000000035 1.007917 61.429499 -6.273759999999999 -12.539019999999999 21.454558000000002 0.003107999999999379 1.7999999999999963e-05 147.997413 -1.2521980000000001 -170.637537 -33.428223 -1.4624289999999973 -2.042257 75.496711 1.8753070000000032 1.57018 21.454550999999995 -0.003090999999995772 -1.9999999999999796e-06 5.5710299999999995 -0.4162859999999956 -3.1521499999999993 1.1513899999999997 -0.8031259999999953 -6.308182999999999 0.8353779999999998 -0.8412659999999919 -6.3032509999999995 -1.657843 4.334063999999999 0.395747 -18.576474000000005 2.297919 0.5520750000000001 151.882206 -79.97402899999999 27.034841999999994 -2.596559999999999 48.213321999999984 31.377892 -110.39100600000003 -1.3227400000000016 3.345334000000001 -12.89216 -3.160073999999994 15.829154999999997 -131.51549699999995 80.65100299999986 50.709391000000025 31.157980999999996 -47.93069899999999 -46.540092999999985 -117.39930000000001 -3.559229999999991 -3.256199 -3.584058 2.9707980000000065 -14.524688999999999 
205.663803 92.44364900000001 -756.3961939999999 94.9642108562819 8.94664531475612 -2.4599152770748476 174.402323 3.5585930000000037 164.179907 -45.87719899999999 6.592363000000002 0.8361290000000005 58.232792999999994 -7.617318999999994 -14.682259999999996 21.45456 0.003107999999999379 1.699999999999989e-05 148.903465 -1.964798999999999 -169.356549 -27.207381 -1.9084819999999985 -1.817456 73.09962100000001 2.025594000000009 2.403696000000001 21.454555 -0.003093999999994912 5.0000000000001054e-06 5.267241000000001 -0.6133089999999929 -3.166815 0.55531 -1.2135269999999905 -6.336475999999999 0.23925399999999997 -1.2518299999999956 -6.329076999999999 -1.621709 6.144071000000003 0.3841689999999999 -17.9933 0.7763420000000038 1.5458520000000004 147.54199000000003 -79.654055 31.448430999999974 -1.6028150000000005 47.016030999999984 34.496195 -110.80941 -1.5151240000000017 3.3768300000000004 -12.73103 -2.344284 16.947915999999992 -130.65937399999999 80.51827900000002 51.583462999999995 34.649246 -48.992209 -47.429168 -117.65489899999999 -3.5788839999999955 -3.2654429999999994 -3.4360500000000003 2.9275359999999986 -15.530681 
200.96969600000003 91.32821700000001 -755.999099 94.21286253351812 9.356174437782833 -4.8263699875609 172.175381 3.4924029999999973 167.110058 -55.116313999999996 5.673918 -1.4100619999999997 59.89973400000001 -7.795156000000005 -19.309682 21.454558 0.003109000000003333 1.6999999999999875e-05 149.892285 -3.106201000000001 -168.476875 -27.217821 -2.1108299999999955 0.9951290000000003 69.635124 0.17567700000000702 2.6311209999999994 21.454550000000005 -0.003093999999994912 9.999999999999034e-07 5.404893000000001 -0.7897070000000009 -2.7983810000000005 0.8352359999999999 -1.5609870000000017 -5.602395999999999 0.5186759999999999 -1.5948740000000006 -5.592910999999999 -2.6847259999999995 7.435040000000001 -0.059974 -17.331507999999996 0.19216499999999928 1.6827000000000003 143.974596 -79.606169 35.06061100000001 -1.046688 46.38055299999999 36.105408000000004 -110.638587 -1.681900999999995 3.3810670000000003 -12.827231999999999 -1.7611419999999913 18.20749 -128.78348999999997 80.20802500000002 53.50030100000004 37.87449199999999 -51.380836 -48.599036 -118.046091 -3.790218000000003 -3.267126 -3.5355930000000004 3.161490000000008 -14.238010000000003 
196.211105 89.36659199999998 -755.5858 92.25995456856137 8.97419046957421 -7.941602677070179 170.07421 2.3489090000000057 168.782936 -65.89408599999999 4.468205000000004 -4.142175 63.28013900000001 -6.078487000000001 -21.645739000000003 21.454562999999997 0.003110000000007287 1.6999999999999966e-05 151.903831 -4.161697999999992 -165.401896 -32.194776 -1.7722729999999973 0.453715 74.20701399999999 -4.507386999999998 -13.718705000000002 21.454553 -0.003093999999994912 -9.999999999998066e-07 5.905197 -0.799869999999996 -2.2170880000000004 1.828129 -1.5658349999999983 -4.446498 1.5109550000000003 -1.5927709999999928 -4.436991999999999 -3.8453309999999994 6.964880000000008 -0.44318500000000005 -17.153319999999997 1.0838580000000098 0.9227000000000001 143.85036799999997 -79.65899999999999 35.18252600000002 -0.38561699999999666 46.66854800000001 36.28883900000001 -109.59709199999999 -1.7174370000000003 3.338391 -12.798203 -1.6288299999999925 18.184050000000003 -127.09064099999989 80.14172400000002 55.217671000000095 39.067954999999984 -54.56598499999998 -49.03565299999999 -118.296691 -3.963808000000002 -3.2655789999999993 -3.780495999999999 4.032205000000007 -11.97493 
